HIERARCHY
ROOT RootJoint
{
    OFFSET   0.000000   0.000000   0.000000
    CHANNELS 6 Xposition Yposition Zposition Xrotation Yrotation Zrotation
    JOINT pelvis_lowerback
    {
        OFFSET   0.000000   0.093605   0.000000
        CHANNELS 3 Xrotation Yrotation Zrotation
        JOINT lowerback_torso
        {
            OFFSET   0.000000   0.100000   0.000000
            CHANNELS 3 Xrotation Yrotation Zrotation
            JOINT torso_head
            {
                OFFSET   0.000000   0.282350   0.000000
                CHANNELS 3 Xrotation Yrotation Zrotation
                End Site
                {
                    OFFSET   0.000000   0.192650   0.000000
                }
            }
            JOINT rTorso_Clavicle
            {
                OFFSET  -0.001000   0.157500   0.000000
                CHANNELS 3 Xrotation Yrotation Zrotation
                JOINT rShoulder
                {
                    OFFSET  -0.117647   0.000000   0.000000
                    CHANNELS 3 Xrotation Yrotation Zrotation
                    JOINT rElbow
                    {
                        OFFSET  -0.245000   0.000000   0.000000
                        CHANNELS 3 Xrotation Yrotation Zrotation
                        JOINT rWrist
                        {
                            OFFSET  -0.240000   0.000000   0.000000
                            CHANNELS 3 Xrotation Yrotation Zrotation
                            End Site
                            {
                                OFFSET  -0.116353  -0.002500   0.000000
                            }
                        }
                    }
                }
            }
            JOINT lTorso_Clavicle
            {
                OFFSET   0.001000   0.157500   0.000000
                CHANNELS 3 Xrotation Yrotation Zrotation
                JOINT lShoulder
                {
                    OFFSET   0.117647   0.000000   0.000000
                    CHANNELS 3 Xrotation Yrotation Zrotation
                    JOINT lElbow
                    {
                        OFFSET   0.245000   0.000000   0.000000
                        CHANNELS 3 Xrotation Yrotation Zrotation
                        JOINT lWrist
                        {
                            OFFSET   0.240000   0.000000   0.000000
                            CHANNELS 3 Xrotation Yrotation Zrotation
                            End Site
                            {
                                OFFSET   0.116353  -0.002500   0.000000
                            }
                        }
                    }
                }
            }
        }
    }
    JOINT rHip
    {
        OFFSET  -0.100000  -0.051395   0.000000
        CHANNELS 3 Xrotation Yrotation Zrotation
        JOINT rKnee
        {
            OFFSET   0.000000  -0.410000   0.000000
            CHANNELS 3 Xrotation Yrotation Zrotation
            JOINT rAnkle
            {
                OFFSET   0.000000  -0.390000   0.000000
                CHANNELS 3 Xrotation Yrotation Zrotation
                JOINT rToeJoint
                {
                    OFFSET   0.000000  -0.050000   0.130000
                    CHANNELS 3 Xrotation Yrotation Zrotation
                    End Site
                    {
                        OFFSET  -0.010000   0.002000   0.060000
                    }
                }
            }
        }
    }
    JOINT lHip
    {
        OFFSET   0.100000  -0.051395   0.000000
        CHANNELS 3 Xrotation Yrotation Zrotation
        JOINT lKnee
        {
            OFFSET   0.000000  -0.410000   0.000000
            CHANNELS 3 Xrotation Yrotation Zrotation
            JOINT lAnkle
            {
                OFFSET   0.000000  -0.390000   0.000000
                CHANNELS 3 Xrotation Yrotation Zrotation
                JOINT lToeJoint
                {
                    OFFSET   0.000000  -0.050000   0.130000
                    CHANNELS 3 Xrotation Yrotation Zrotation
                    End Site
                    {
                        OFFSET   0.010000   0.002000   0.060000
                    }
                }
            }
        }
    }
}
MOTION
Frames: 8
Frame Time:   0.008333
 -1.773437   1.035117   4.203676   0.701499  -7.991587  -1.556017   2.533206  -1.086430  -0.344905  -3.997612  -3.252684   0.909936  -2.199453  -0.935417   0.917271   2.232523 -18.623306   9.664054 -14.886349 -21.427020  30.045894   0.009722  20.739742  -0.007717  -2.713201  -0.286614 -19.466733   4.341370  15.021671  -9.373714 -17.525239  17.446540 -34.580765   0.004679 -30.223488   0.012256  -5.433301  -2.693532  22.109006 -10.033073  -2.531241  -2.517197  32.450163   0.001404  -0.001886   5.649171  -4.868622   9.056526  -2.065543  -0.001903   0.003820  -5.873837   0.369179   4.104650  13.868749  -0.001632  -0.000858  29.928399   1.740775  -4.902200  -9.680657   0.018159  -0.005740
 -1.773268   1.034697   4.204525   0.509850  -7.770983  -1.517577   2.654786  -1.115542  -0.567500  -4.008774  -3.266877   0.858932  -2.261729  -0.926506   1.042854   2.277118 -18.860504   9.643636 -15.218511 -21.655761  29.582006   0.006662  20.928314  -0.005235  -2.808743  -0.485447 -19.606113   4.150997  15.127814  -9.314775 -18.221793  17.644458 -34.141844   0.002057 -30.554966   0.006491  -5.596138  -2.525451  22.374589  -9.983174  -2.563144  -2.582528  32.948682   0.001336  -0.000826   5.453427  -4.747752   9.151481  -1.893001  -0.001550   0.003433  -5.691572   0.255429   4.051617  14.632715  -0.001374   0.000000  28.110962   1.935036  -4.652445  -8.898583   0.013048  -0.003713
 -1.773015   1.033550   4.205216   0.307551  -7.558376  -1.510062   2.803067  -1.140271  -0.748315  -4.002180  -3.275996   0.830106  -2.314853  -0.917428   1.167900   2.286487 -19.035261   9.576874 -15.561180 -21.820193  29.123974   0.004175  21.130859  -0.003307  -2.860259  -0.553872 -19.755880   3.932603  15.180588  -9.222779 -18.907989  17.778609 -33.718053  -0.000116 -30.895844   0.002014  -5.698562  -2.512296  22.635599  -9.947411  -2.598495  -2.639741  33.491227   0.001383  -0.000006   5.272908  -4.635265   9.240861  -1.743597  -0.001235   0.003029  -5.526030   0.143288   4.035102  15.392273  -0.001181   0.000680  26.416113   2.111822  -4.412140  -8.184658   0.009152  -0.002100
 -1.772693   1.031704   4.205830   0.114403  -7.351989  -1.512733   2.948864  -1.162813  -0.905769  -3.992572  -3.284098   0.813046  -2.360679  -0.908844   1.287224   2.275211 -19.167629   9.481792 -15.901067 -21.941631  28.680054   0.002243  21.333451  -0.001847  -2.881431  -0.539016 -19.906998   3.705245  15.199352  -9.105672 -19.570231  17.870490 -33.309214  -0.001822 -31.228016  -0.001306  -5.762544  -2.584665  22.880918  -9.916228  -2.630663  -2.703794  34.009151   0.001494   0.000564   5.105020  -4.530674   9.324641  -1.605868  -0.000957   0.002660  -5.375090   0.037188   4.032960  16.103718  -0.001011   0.001191  24.834036   2.270361  -4.182832  -7.527449   0.006233  -0.000851
 -1.772319   1.029173   4.206400  -0.065256  -7.151771  -1.520519   3.086402  -1.183482  -1.045353  -3.985515  -3.291404   0.803706  -2.402557  -0.900890   1.399731   2.251436 -19.270701   9.371451 -16.231458 -22.033117  28.255235   0.000788  21.531341  -0.000763  -2.883425  -0.473314 -20.055944   3.477990  15.196958  -8.973117 -20.202986  17.932973 -32.917044  -0.003114 -31.547043  -0.003699  -5.802167  -2.706004  23.114083  -9.887601  -2.658675  -2.775847  34.493071   0.001625   0.000939   4.948260  -4.433478   9.403060  -1.479752  -0.000717   0.002326  -5.238274  -0.062626   4.039259  16.765218  -0.000856   0.001562  23.356675   2.412483  -3.964642  -6.924908   0.004072   0.000090
 -1.771901   1.025965   4.206944  -0.231189  -6.957792  -1.532022   3.214284  -1.202150  -1.169769  -3.981893  -3.297709   0.800455  -2.441687  -0.893554   1.505364   2.220255 -19.352942   9.254689 -16.548502 -22.103292  27.852446  -0.000270  21.721885   0.000022  -2.873198  -0.376801 -20.200361   3.256104  15.181508  -8.832755 -20.803457  17.974664 -32.543205  -0.004049 -31.850813  -0.005359  -5.825548  -2.856076  23.337769  -9.860128  -2.682827  -2.854339  34.943854   0.001751   0.001169   4.801805  -4.343142   9.476427  -1.364425  -0.000514   0.002028  -5.114051  -0.156406   4.051715  17.380085  -0.000714   0.001817  21.977088   2.539928  -3.757498  -6.372860   0.002492   0.000778
 -1.771447   1.022086   4.207471  -0.384062  -6.769938  -1.546696   3.332446  -1.218717  -1.280823  -3.981344  -3.302852   0.802370  -2.478498  -0.886794   1.604379   2.184982 -19.420100   9.137368 -16.850065 -22.158142  27.473143  -0.001009  21.903599   0.000573  -2.855272  -0.262388 -20.338553   3.042731  15.158337  -8.690074 -21.370500  18.001608 -32.188709  -0.004686 -32.138342  -0.006445  -5.837933  -3.022173  23.553246  -9.832920  -2.703625  -2.937434  35.363944   0.001857   0.001292   4.664987  -4.259158   9.545053  -1.258937  -0.000345   0.001762  -5.001026  -0.244485   4.068889  17.951930  -0.000584   0.001979  20.688866   2.654264  -3.561217  -5.867059   0.001353   0.001263
 -1.770716   1.017339   4.207179  -0.497067  -6.708414  -1.608076   3.668320  -1.222075  -1.274116  -4.113907  -3.241602   0.806283  -2.650420  -0.853663   1.698641   2.094542 -19.458569   8.968441 -17.221118 -22.122400  27.164293  -0.003212  22.508948   0.002137  -2.912843  -0.451398 -20.570398   2.871971  15.062493  -8.609665 -21.953532  18.011956 -31.824089  -0.006541 -32.741254  -0.008572  -5.894520  -2.916076  23.868173 -10.178057  -2.740312  -2.985964  36.410112   0.002010   0.000699   4.066730  -4.288802   9.635908  -1.058099  -0.000337   0.001299  -5.162135  -0.363169   4.102111  19.036892  -0.000469   0.001241  19.661586   2.787088  -3.212657  -5.256249  -0.000826   0.001270
